<svg xmlns="http://www.w3.org/2000/svg" version="1.1" xmlns:xlink="http://www.w3.org/1999/xlink" xmlns:svgjs="http://svgjs.dev/svgjs" width="1000" height="1000" viewBox="0 0 1000 1000"><rect width="1000" height="1000" fill="#ffffff"></rect><g transform="matrix(0.7,0,0,0.7,149.57575757575756,395.73674067361895)"><svg viewBox="0 0 396 118" data-background-color="#c9efc7" preserveAspectRatio="xMidYMid meet" height="297" width="1000" xmlns="http://www.w3.org/2000/svg" xmlns:xlink="http://www.w3.org/1999/xlink"><g id="tight-bounds" transform="matrix(1,0,0,1,0.2400000000000091,0.17779990626726772)"><svg viewBox="0 0 395.52 117.64440018746546" height="117.64440018746546" width="395.52"><g><svg viewBox="0 0 471.861570598377 140.35161671865254" height="117.64440018746546" width="395.52"><g><rect width="5.852021002655222" height="140.35161671865254" x="55.17012288720026" y="0" fill="#000000" opacity="1" stroke-width="0" stroke="transparent" fill-opacity="1" class="rect-o-0" data-fill-palette-color="primary" rx="1%" id="o-0" data-palette-color="#454545"></rect></g><g transform="matrix(1,0,0,1,76.341570598377,0.3491333749220189)"><svg viewBox="0 0 395.52 139.6533499688085" height="139.6533499688085" width="395.52"><g id="textblocktransform"><svg viewBox="0 0 395.52 139.6533499688085" height="139.6533499688085" width="395.52" id="textblock"><g><svg viewBox="0 0 395.52 139.6533499688085" height="139.6533499688085" width="395.52"><g transform="matrix(1,0,0,1,0,0)"><svg width="395.52" viewBox="3.15000057220459 -38.60000228881836 240.45001220703125 81.90000915527344" height="139.6533499688085" data-palette-color="#454545"><svg></svg><svg></svg><g class="undefined-text-0" data-fill-palette-color="primary" id="text-0"><path xmlns="http://www.w3.org/2000/svg" d="M16.1 0.85c-4.833 0-9.15-0.9-12.95-2.7v0-4.6c3.833 2.033 8.15 3.05 12.95 3.05v0c2.767 0 4.793-0.583 6.08-1.75 1.28-1.167 1.92-2.7 1.92-4.6v0c0-1.8-0.59-3.15-1.77-4.05-1.187-0.9-2.93-1.683-5.23-2.35v0l-3.4-0.95c-1.933-0.567-3.583-1.217-4.95-1.95-1.367-0.733-2.507-1.793-3.42-3.18-0.92-1.38-1.38-3.187-1.38-5.42v0c0-3.567 1.043-6.283 3.13-8.15 2.08-1.867 5.037-2.8 8.87-2.8v0c2.233 0 4.2 0.207 5.9 0.62 1.7 0.42 3.467 1.047 5.3 1.88v0 4.5c-3.4-1.833-7.133-2.75-11.2-2.75v0c-2.467 0-4.267 0.573-5.4 1.72-1.133 1.153-1.7 2.73-1.7 4.73v0c0.033 1.833 0.593 3.183 1.68 4.05 1.08 0.867 2.77 1.633 5.07 2.3v0l3.45 0.95c2.033 0.567 3.76 1.223 5.18 1.97 1.413 0.753 2.563 1.837 3.45 3.25 0.88 1.42 1.32 3.263 1.32 5.53v0c-0.033 3.3-1.19 5.91-3.47 7.83-2.287 1.913-5.43 2.87-9.43 2.87zM61.85-37.9v4.35h-11.4v33.55h-4.9v-33.55h-11.4v-4.35zM83.45 0.85c-4.833 0-8.45-1.227-10.85-3.68-2.4-2.447-3.6-5.92-3.6-10.42v0-24.65h4.9v24.65c0 3.233 0.8 5.683 2.4 7.35 1.6 1.667 3.983 2.5 7.15 2.5v0c3.167 0 5.55-0.833 7.15-2.5 1.6-1.667 2.4-4.117 2.4-7.35v0-24.65h4.9v24.65c0 4.5-1.2 7.973-3.6 10.42-2.4 2.453-6.017 3.68-10.85 3.68zM121-37.9c6.233 0 10.943 1.607 14.13 4.82 3.18 3.22 4.77 7.947 4.77 14.18v0c0 6.267-1.583 10.983-4.75 14.15-3.167 3.167-7.883 4.75-14.15 4.75v0h-12.6v-37.9zM134.9-19.05c0-5-1.167-8.683-3.5-11.05-2.333-2.367-5.8-3.55-10.4-3.55v0h-7.75v29.4h7.75c4.633 0 8.11-1.183 10.43-3.55 2.313-2.367 3.47-6.117 3.47-11.25zM153.05-4.2h18.35v4.2h-23.2v-37.9h22.95v4.2h-18.1v12.55h15.6v4.2h-15.6zM203.7-37.9h4.85v37.9h-5.3l-18.65-29.75v29.75h-4.85v-37.9h5.25l18.7 29.75zM243.6-37.9v4.35h-11.4v33.55h-4.9v-33.55h-11.4v-4.35z" fill="#000000" fill-rule="nonzero" stroke="none" stroke-width="1" stroke-linecap="butt" stroke-linejoin="miter" stroke-miterlimit="10" stroke-dasharray="" stroke-dashoffset="0" font-family="none" font-weight="none" font-size="none" text-anchor="none" style="mix-blend-mode: normal" data-fill-palette-color="primary" opacity="1"></path><path xmlns="http://www.w3.org/2000/svg" d="M29.3 4.55h4.85v37.9h-4.85v-16.85h-19.1v16.85h-4.85v-37.9h4.85v16.65h19.1zM60.4 43.3c-3.9 0-7.207-0.86-9.92-2.58-2.72-1.713-4.763-4.063-6.13-7.05-1.367-2.98-2.05-6.353-2.05-10.12v0c0-3.7 0.683-7.033 2.05-10 1.367-2.967 3.41-5.327 6.13-7.08 2.713-1.747 6.02-2.62 9.92-2.62v0c3.867 0 7.15 0.873 9.85 2.62 2.7 1.753 4.743 4.12 6.13 7.1 1.38 2.987 2.07 6.313 2.07 9.98v0c0 3.767-0.683 7.14-2.05 10.12-1.367 2.987-3.407 5.337-6.12 7.05-2.72 1.72-6.013 2.58-9.88 2.58zM60.4 39.05c2.733 0 5.083-0.683 7.05-2.05 1.967-1.367 3.46-3.233 4.48-5.6 1.013-2.367 1.52-5.033 1.52-8v0c0-2.867-0.517-5.46-1.55-7.78-1.033-2.313-2.533-4.147-4.5-5.5-1.967-1.347-4.3-2.02-7-2.02v0c-2.8 0-5.183 0.683-7.15 2.05-1.967 1.367-3.45 3.217-4.45 5.55-1 2.333-1.5 4.95-1.5 7.85v0c0 2.967 0.5 5.617 1.5 7.95 1 2.333 2.483 4.173 4.45 5.52 1.967 1.353 4.35 2.03 7.15 2.03zM100.9 43.3c-4.833 0-8.45-1.227-10.85-3.68-2.4-2.447-3.6-5.92-3.6-10.42v0-24.65h4.9v24.65c0 3.233 0.8 5.683 2.4 7.35 1.6 1.667 3.983 2.5 7.15 2.5v0c3.167 0 5.55-0.833 7.15-2.5 1.6-1.667 2.4-4.117 2.4-7.35v0-24.65h4.9v24.65c0 4.5-1.2 7.973-3.6 10.42-2.4 2.453-6.017 3.68-10.85 3.68zM136.6 43.3c-4.833 0-9.15-0.9-12.95-2.7v0-4.6c3.833 2.033 8.15 3.05 12.95 3.05v0c2.767 0 4.793-0.583 6.08-1.75 1.28-1.167 1.92-2.7 1.92-4.6v0c0-1.8-0.59-3.15-1.77-4.05-1.187-0.9-2.93-1.683-5.23-2.35v0l-3.4-0.95c-1.933-0.567-3.583-1.217-4.95-1.95-1.367-0.733-2.507-1.793-3.42-3.18-0.92-1.38-1.38-3.187-1.38-5.42v0c0-3.567 1.043-6.283 3.13-8.15 2.08-1.867 5.037-2.8 8.87-2.8v0c2.233 0 4.2 0.207 5.9 0.62 1.7 0.42 3.467 1.047 5.3 1.88v0 4.5c-3.4-1.833-7.133-2.75-11.2-2.75v0c-2.467 0-4.267 0.573-5.4 1.72-1.133 1.153-1.7 2.73-1.7 4.73v0c0.033 1.833 0.593 3.183 1.68 4.05 1.08 0.867 2.77 1.633 5.07 2.3v0l3.45 0.95c2.033 0.567 3.76 1.223 5.18 1.97 1.413 0.753 2.563 1.837 3.45 3.25 0.88 1.42 1.32 3.263 1.32 5.53v0c-0.033 3.3-1.19 5.91-3.47 7.83-2.287 1.913-5.43 2.87-9.43 2.87zM162.85 38.25h18.35v4.2h-23.2v-37.9h22.95v4.2h-18.1v12.55h15.6v4.2h-15.6z" fill="#000000" fill-rule="nonzero" stroke="none" stroke-width="1" stroke-linecap="butt" stroke-linejoin="miter" stroke-miterlimit="10" stroke-dasharray="" stroke-dashoffset="0" font-family="none" font-weight="none" font-size="none" text-anchor="none" style="mix-blend-mode: normal" data-fill-palette-color="primary" opacity="1"></path></g></svg></g></svg></g></svg></g></svg></g><g transform="matrix(1,0,0,1,0,0.3491333749220189)"><svg viewBox="0 0 39.85069617867873 139.6533499688085" height="139.6533499688085" width="39.85069617867873"><g><svg xmlns="http://www.w3.org/2000/svg" xmlns:xlink="http://www.w3.org/1999/xlink" version="1.1" x="0" y="0" viewBox="37.50199890136719 0 28.545997619628906 100.03700256347656" enable-background="new 0 0 100 100" xml:space="preserve" width="39.85069617867873" height="139.6533499688085" class="icon-icon-0" data-fill-palette-color="accent" id="icon-0"><g fill="#454545" data-fill-palette-color="accent"><path d="M51.775 31.358c-7.788 0-14.124 6.337-14.124 14.125v26.609h1.811 1.627v27.945h9.547V73.001h2.278v27.036h9.547V72.092h1.627H65.9V45.483C65.9 37.695 59.564 31.358 51.775 31.358zM44.712 96.415V72.092h2.302v24.323H44.712zM56.537 96.415V72.092h2.302v24.323H56.537z" fill="#000000" data-fill-palette-color="accent"></path><path d="M66.048 11.265L51.775 0 37.502 11.265l4.233 3.341c-0.715 1.472-1.128 3.116-1.128 4.859 0 6.159 5.01 11.17 11.169 11.17s11.17-5.011 11.17-11.17c0-1.743-0.413-3.388-1.129-4.86l3.009-2.375v6.309h1.207v-7.262L66.048 11.265zM51.775 27.013c-4.161 0-7.546-3.386-7.546-7.547 0-0.352 0.033-0.695 0.079-1.034h14.934c0.047 0.339 0.079 0.683 0.079 1.034C59.322 23.627 55.937 27.013 51.775 27.013z" fill="#000000" data-fill-palette-color="accent"></path></g></svg></g></svg></g></svg></g><defs></defs></svg><rect width="395.52" height="117.64440018746546" fill="none" stroke="none" visibility="hidden"></rect></g></svg></g></svg>